<?xml version="1.0" standalone="no"?>
<!DOCTYPE svg PUBLIC "-//W3C//DTD SVG 20010904//EN"
 "http://www.w3.org/TR/2001/REC-SVG-20010904/DTD/svg10.dtd">
<svg version="1.0" xmlns="http://www.w3.org/2000/svg"
 width="470.000000pt" height="388.000000pt" viewBox="0 0 470.000000 388.000000"
 preserveAspectRatio="xMidYMid meet">

<g transform="translate(0.000000,388.000000) scale(0.100000,-0.100000)"
fill="#000000" stroke="none">
<path d="M2825 3730 c-13 -14 -16 -28 -11 -52 3 -18 7 -37 7 -43 1 -8 -259
-463 -505 -885 l-62 -105 -93 -11 c-91 -12 -164 -33 -209 -62 -23 -15 -26 -12
-110 70 -48 47 -191 187 -318 311 -216 212 -230 229 -226 257 8 56 -54 93 -92
54 -9 -8 -16 -28 -16 -44 0 -33 23 -50 68 -50 17 0 36 -9 48 -23 36 -42 459
-552 499 -600 27 -35 36 -53 29 -62 -71 -100 -98 -149 -116 -212 -21 -70 -24
-74 -79 -108 -59 -36 -122 -99 -141 -141 -6 -13 -18 -24 -27 -25 -9 0 -81 0
-161 1 -179 1 -233 -8 -272 -47 -58 -58 -42 -156 32 -195 32 -16 64 -18 360
-18 296 0 328 -2 360 -18 87 -46 92 -181 8 -232 -32 -19 -49 -20 -733 -21
-515 0 -709 -3 -735 -12 -43 -15 -80 -68 -80 -116 0 -40 29 -94 58 -110 13 -7
208 -12 560 -13 528 -3 541 -3 568 -24 49 -36 67 -68 66 -119 -1 -55 -20 -88
-65 -115 -30 -19 -53 -20 -370 -20 -372 0 -386 -2 -420 -59 -9 -16 -17 -48
-17 -70 0 -33 7 -49 34 -79 l34 -37 574 -5 c447 -4 578 -8 596 -18 64 -37 83
-145 35 -203 -47 -56 -67 -59 -344 -59 -281 0 -305 -5 -333 -65 -31 -64 -12
-130 47 -165 31 -19 57 -20 997 -20 1087 0 1374 8 1490 40 112 32 182 74 258
155 110 117 172 272 203 502 18 139 6 587 -21 736 -41 234 -106 493 -156 625
-99 265 -256 382 -551 413 -166 17 -535 -16 -820 -72 l-153 -31 -59 36 c-32
20 -63 36 -69 36 -6 0 -13 4 -16 9 -4 5 89 213 205 463 116 249 222 477 235
506 18 42 28 52 47 52 30 0 57 29 57 63 0 52 -60 76 -95 37z m-53 -1819 c123
-71 396 -229 608 -351 212 -122 388 -225 393 -229 4 -4 -59 -45 -140 -91 -82
-46 -227 -129 -323 -185 -144 -84 -551 -320 -727 -421 -23 -13 -44 -24 -47
-24 -8 0 -7 959 1 1218 3 117 7 212 9 212 1 0 103 -58 226 -129z"/>
</g>
</svg>
